# xmcd
#
# Track frame offsets:
#	150
#	2305
#	21008
#	40027
#	68027
#	86735
#	108339
#	123706
#	145671
#	161202
#	181763
#	219584
#	236993
#	254822
#	274831
#	287691
#
# Disc length: 4199 seconds
#
# Revision: 2
# Processed by: cddbd v1.5.2PL0 Copyright (c) Steve Scherf et al.
# Submitted via: audiograbber 1.83.01
#
DISCID=e5106510
DTITLE=Владимир Рекшан and Санкт-Петербург - Лучшее (1970-2000)
DYEAR=2000
DGENRE=Rock
TTITLE0=Вступление
TTITLE1=Солнечный день
TTITLE2=Лирика капитализма
TTITLE3=Жизнь не сахар
TTITLE4=Нищий
TTITLE5=Горит паутина
TTITLE6=Если вас спросят
TTITLE7=Дай мне, пожалуйста, спички
TTITLE8=Что подарить влюбленной
TTITLE9=Спеши к восходу
TTITLE10=Сердце камня
TTITLE11=Осень 1970 года
TTITLE12=Невский проспект
TTITLE13=Наши лица
TTITLE14=Дура
TTITLE15=Философский блюз
EXTD=
EXTT0=
EXTT1=
EXTT2=
EXTT3=
EXTT4=
EXTT5=
EXTT6=
EXTT7=
EXTT8=
EXTT9=
EXTT10=
EXTT11=
EXTT12=
EXTT13=
EXTT14=
EXTT15=
PLAYORDER=
